<svg width="19" height="19" viewBox="0 0 19 19" fill="none" xmlns="http://www.w3.org/2000/svg">
<path d="M18.2154 4.6567C17.9312 3.99857 17.5213 3.40217 17.0088 2.9009C16.4959 2.39813 15.8912 1.99859 15.2276 1.724C14.5394 1.43814 13.8013 1.29182 13.0561 1.29353C12.0107 1.29353 10.9907 1.57981 10.1044 2.12054C9.8923 2.24989 9.69085 2.39197 9.5 2.54677C9.30915 2.39197 9.1077 2.24989 8.89565 2.12054C8.00926 1.57981 6.98929 1.29353 5.94386 1.29353C5.19107 1.29353 4.46161 1.43773 3.77243 1.724C3.10659 1.99967 2.50647 2.39621 1.99118 2.9009C1.47801 3.4016 1.06807 3.99814 0.784599 4.6567C0.489845 5.34164 0.339287 6.06898 0.339287 6.81753C0.339287 7.52367 0.483483 8.25949 0.769756 9.00804C1.00938 9.6336 1.3529 10.2825 1.79185 10.9377C2.48739 11.9747 3.44375 13.0561 4.63125 14.1525C6.59911 15.9698 8.54788 17.2251 8.63058 17.276L9.13315 17.5983C9.35581 17.7404 9.64208 17.7404 9.86473 17.5983L10.3673 17.276C10.45 17.223 12.3967 15.9698 14.3666 14.1525C15.5541 13.0561 16.5105 11.9747 17.206 10.9377C17.645 10.2825 17.9906 9.6336 18.2281 9.00804C18.5144 8.25949 18.6586 7.52367 18.6586 6.81753C18.6607 6.06898 18.5102 5.34164 18.2154 4.6567Z" fill="#E76161"/>
</svg>
